<!DOCTYPE svg PUBLIC "-//W3C//DTD SVG 1.1//EN" "http://www.w3.org/Graphics/SVG/1.1/DTD/svg11.dtd">
<!-- Uploaded to: SVG Repo, www.svgrepo.com, Transformed by: SVG Repo Mixer Tools -->
<svg width="800px" height="800px" viewBox="-40 -40 480.00 480.00" fill="none" xmlns="http://www.w3.org/2000/svg" stroke="#ffffff" data-darkreader-inline-stroke="" style="--darkreader-inline-stroke: #e8e6e3;">
<g id="SVGRepo_bgCarrier" stroke-width="0">
<path transform="translate(-40, -40), scale(15)" d="M16,29.47385023161769C17.984892821398095,29.815856863885106,19.885567706818463,28.682696172405663,21.784998381517056,28.0126729183565C23.855151481197694,27.282427411266287,26.493302810243794,27.16608878593742,27.71412093838694,25.34169972251376C28.955119592822545,23.487152906175588,27.652421962272598,20.94256127840439,27.991908176873253,18.7370747868572C28.30382317413165,16.710705870011477,30.07642091960062,14.890078519602678,29.630968247130607,12.8888204479731C29.185719968039667,10.888480642020058,26.759588649875752,10.02460539504218,25.666758649326777,8.291017220413089C24.415061595683703,6.305413595582452,24.893129030756764,2.9411756050714883,22.752768661826483,1.9777313876141704C20.588190739904373,1.0033860799808072,18.372982509759623,4.000532608053,16,3.9397019664756954C13.537371572094134,3.8765732806889646,11.410197301382745,0.8326216468742634,9.078421383025082,1.6271939037940175C6.851330826093671,2.3860937432914735,6.1834402539398186,5.330146086762367,5.404356797984262,7.5502565082997C4.740308918881124,9.442556499432794,4.956699087611772,11.466386395487863,4.9219986915382705,13.471518492058067C4.892802134480008,15.158616055522794,5.311499915081837,16.776866313313292,5.215529362317104,18.461485047803297C5.081484695007079,20.814437607767413,2.8138063334595387,23.501896139952645,4.243860873698351,25.375208109224797C5.657955302269062,27.227612996020373,8.900932163970326,25.40465305205342,11.101493587924713,26.171853375921117C12.98450127293977,26.82834225646911,14.034793705567626,29.135235683152484,16,29.47385023161769" fill="#7ed0ec" strokewidth="0" data-darkreader-inline-fill="" style="--darkreader-inline-fill: #125f7a;"/>
</g>
<g id="SVGRepo_tracerCarrier" stroke-linecap="round" stroke-linejoin="round"/>
<g id="SVGRepo_iconCarrier"> <path d="M97.8357 54.6682C177.199 59.5311 213.038 52.9891 238.043 52.9891C261.298 52.9891 272.24 129.465 262.683 152.048C253.672 173.341 100.331 174.196 93.1919 165.763C84.9363 156.008 89.7095 115.275 89.7095 101.301" stroke="#000000" stroke-opacity="0.9" stroke-width="16" stroke-linecap="round" stroke-linejoin="round" data-darkreader-inline-stroke="" style="--darkreader-inline-stroke: #e8e6e3;"/> <path d="M98.3318 190.694C-10.6597 291.485 121.25 273.498 148.233 295.083" stroke="#000000" stroke-opacity="0.9" stroke-width="16" stroke-linecap="round" stroke-linejoin="round" data-darkreader-inline-stroke="" style="--darkreader-inline-stroke: #e8e6e3;"/> <path d="M98.3301 190.694C99.7917 213.702 101.164 265.697 100.263 272.898" stroke="#000000" stroke-opacity="0.9" stroke-width="16" stroke-linecap="round" stroke-linejoin="round" data-darkreader-inline-stroke="" style="--darkreader-inline-stroke: #e8e6e3;"/> <path d="M208.308 136.239C208.308 131.959 208.308 127.678 208.308 123.396" stroke="#000000" stroke-opacity="0.9" stroke-width="16" stroke-linecap="round" stroke-linejoin="round" data-darkreader-inline-stroke="" style="--darkreader-inline-stroke: #e8e6e3;"/> <path d="M177.299 137.271C177.035 133.883 177.3 126.121 177.3 123.396" stroke="#000000" stroke-opacity="0.9" stroke-width="16" stroke-linecap="round" stroke-linejoin="round" data-darkreader-inline-stroke="" style="--darkreader-inline-stroke: #e8e6e3;"/> <path d="M203.398 241.72C352.097 239.921 374.881 226.73 312.524 341.851" stroke="#000000" stroke-opacity="0.9" stroke-width="16" stroke-linecap="round" stroke-linejoin="round" data-darkreader-inline-stroke="" style="--darkreader-inline-stroke: #e8e6e3;"/> <path d="M285.55 345.448C196.81 341.85 136.851 374.229 178.223 264.504" stroke="#000000" stroke-opacity="0.9" stroke-width="16" stroke-linecap="round" stroke-linejoin="round" data-darkreader-inline-stroke="" style="--darkreader-inline-stroke: #e8e6e3;"/> <path d="M180.018 345.448C160.77 331.385 139.302 320.213 120.658 304.675" stroke="#000000" stroke-opacity="0.9" stroke-width="16" stroke-linecap="round" stroke-linejoin="round" data-darkreader-inline-stroke="" style="--darkreader-inline-stroke: #e8e6e3;"/> <path d="M218.395 190.156C219.024 205.562 219.594 220.898 219.594 236.324" stroke="#000000" stroke-opacity="0.9" stroke-width="16" stroke-linecap="round" stroke-linejoin="round" data-darkreader-inline-stroke="" style="--darkreader-inline-stroke: #e8e6e3;"/> <path d="M218.395 190.156C225.896 202.037 232.97 209.77 241.777 230.327" stroke="#000000" stroke-opacity="0.9" stroke-width="16" stroke-linecap="round" stroke-linejoin="round" data-darkreader-inline-stroke="" style="--darkreader-inline-stroke: #e8e6e3;"/> <path d="M80.1174 119.041C75.5996 120.222 71.0489 119.99 66.4414 120.41" stroke="#000000" stroke-opacity="0.9" stroke-width="16" stroke-linecap="round" stroke-linejoin="round" data-darkreader-inline-stroke="" style="--darkreader-inline-stroke: #e8e6e3;"/> <path d="M59.5935 109.469C59.6539 117.756 59.5918 125.915 58.9102 134.086" stroke="#000000" stroke-opacity="0.9" stroke-width="16" stroke-linecap="round" stroke-linejoin="round" data-darkreader-inline-stroke="" style="--darkreader-inline-stroke: #e8e6e3;"/> <path d="M277.741 115.622C281.155 115.268 284.589 114.823 287.997 114.255" stroke="#000000" stroke-opacity="0.9" stroke-width="16" stroke-linecap="round" stroke-linejoin="round" data-darkreader-inline-stroke="" style="--darkreader-inline-stroke: #e8e6e3;"/> <path d="M291.412 104.682C292.382 110.109 292.095 115.612 292.095 121.093" stroke="#000000" stroke-opacity="0.9" stroke-width="16" stroke-linecap="round" stroke-linejoin="round" data-darkreader-inline-stroke="" style="--darkreader-inline-stroke: #e8e6e3;"/> <path d="M225.768 116.466C203.362 113.993 181.657 115.175 160.124 118.568" stroke="#000000" stroke-opacity="0.9" stroke-width="16" stroke-linecap="round" stroke-linejoin="round" data-darkreader-inline-stroke="" style="--darkreader-inline-stroke: #e8e6e3;"/> </g>
</svg>